HIERARCHY
ROOT Hips
{
 OFFSET 0.000000 0.000000 0.000000
 CHANNELS 6 Xposition Yposition Zposition Yrotation Xrotation Zrotation
 JOINT Chest
 {
  OFFSET 0.000000 9.857222 0.000240
  CHANNELS 3 Yrotation Xrotation Zrotation
  JOINT Chest2
  {
   OFFSET 0.000000 10.876940 -0.000436
   CHANNELS 3 Yrotation Xrotation Zrotation
   JOINT Chest3
   {
    OFFSET 0.000000 9.827798 0.000000
    CHANNELS 3 Yrotation Xrotation Zrotation
    JOINT Chest4
    {
     OFFSET 0.000000 9.827798 0.000000
     CHANNELS 3 Yrotation Xrotation Zrotation
     JOINT Neck
     {
      OFFSET 0.000000 13.831992 0.000000
      CHANNELS 3 Yrotation Xrotation Zrotation
      JOINT Head
      {
       OFFSET 0.000000 9.147643 -0.001036
       CHANNELS 3 Yrotation Xrotation Zrotation
       End Site
       {
        OFFSET 0.000000 17.515799 -0.000541
       }
      }
     }
     JOINT RightCollar
     {
      OFFSET -3.001579 7.717577 0.000000
      CHANNELS 3 Yrotation Xrotation Zrotation
      JOINT RightShoulder
      {
       OFFSET -14.002642 0.000000 0.000000
       CHANNELS 3 Yrotation Xrotation Zrotation
       JOINT RightElbow
       {
        OFFSET -30.053852 0.000000 0.000000
        CHANNELS 3 Yrotation Xrotation Zrotation
        JOINT RightWrist
        {
         OFFSET -24.564923 0.000000 -0.000000
         CHANNELS 3 Yrotation Xrotation Zrotation
         End Site
         {
          OFFSET -18.334355 0.000000 0.000000
         }
        }
       }
      }
     }
     JOINT LeftCollar
     {
      OFFSET 3.001579 7.717577 0.000000
      CHANNELS 3 Yrotation Xrotation Zrotation
      JOINT LeftShoulder
      {
       OFFSET 14.002642 0.000000 0.000000
       CHANNELS 3 Yrotation Xrotation Zrotation
       JOINT LeftElbow
       {
        OFFSET 30.053852 0.000000 0.000000
        CHANNELS 3 Yrotation Xrotation Zrotation
        JOINT LeftWrist
        {
         OFFSET 24.564923 0.000000 -0.000000
         CHANNELS 3 Yrotation Xrotation Zrotation
         End Site
         {
          OFFSET 18.334355 0.000000 0.000000
         }
        }
       }
      }
     }
    }
   }
  }
 }
 JOINT RightHip
 {
  OFFSET -8.003235 -0.001175 -0.000120
  CHANNELS 3 Yrotation Xrotation Zrotation
  JOINT RightKnee
  {
   OFFSET 0.000000 -41.759727 0.000113
   CHANNELS 3 Yrotation Xrotation Zrotation
   JOINT RightAnkle
   {
    OFFSET 0.000000 -40.728748 0.000159
    CHANNELS 3 Yrotation Xrotation Zrotation
    JOINT RightToe
    {
     OFFSET 0.000000 -6.515296 14.732841
     CHANNELS 3 Yrotation Xrotation Zrotation
     End Site
     {
      OFFSET 0.000000 -1.502839 6.412115
     }
    }
   }
  }
 }
 JOINT LeftHip
 {
  OFFSET 8.003235 -0.001175 -0.000120
  CHANNELS 3 Yrotation Xrotation Zrotation
  JOINT LeftKnee
  {
   OFFSET 0.000000 -41.759727 0.000113
   CHANNELS 3 Yrotation Xrotation Zrotation
   JOINT LeftAnkle
   {
    OFFSET 0.000000 -40.728748 0.000159
    CHANNELS 3 Yrotation Xrotation Zrotation
    JOINT LeftToe
    {
     OFFSET 0.000000 -6.515296 14.732841
     CHANNELS 3 Yrotation Xrotation Zrotation
     End Site
     {
      OFFSET 0.000000 -1.502839 6.412115
     }
    }
   }
  }
 }
}
MOTION
Frames: 7
Frame Time: 0.016667
15.325363 89.978967 22.752219 -42.617629 -4.232746 -6.605984 5.359543 6.636246 4.740556 2.458384 2.846579 2.178940 2.458384 2.846579 2.178940 1.833280 2.143770 1.622441 -7.447980 20.113451 1.557695 -14.036995 1.671666 5.072334 8.953964 1.249189 13.179346 42.703953 -4.196009 85.386019 3.143882 8.649863 -0.186289 -7.346309 7.444122 -1.672048 -28.265368 14.182596 -11.346196 -25.432748 8.764219 -54.020567 -46.860944 -15.851405 12.070959 -7.164528 11.176785 5.006858 29.220237 -71.551361 -15.130815 -42.814609 63.768058 -50.678188 7.076278 31.750407 -2.116345 0.586547 -0.344724 2.585342 16.803727 -9.723334 2.066169 -6.424758 23.434186 1.255593 3.017096 -9.202634 2.557341 0.005366 -0.046632 -0.203903
15.412633 89.952061 22.832906 -42.652147 -4.302457 -6.344386 5.368725 6.469669 4.642167 2.445818 2.791511 2.188840 2.445818 2.791511 2.188840 1.824024 2.102462 1.630157 -7.456350 20.136565 1.496836 -14.032228 1.707385 4.961797 9.013180 1.225352 13.152798 42.301801 -4.346576 85.380331 2.730608 8.820169 -0.011166 -7.279131 7.484373 -1.304692 -28.257074 14.101112 -11.343231 -25.059920 8.701962 -53.775318 -46.681133 -15.787213 11.879125 -7.165395 11.133864 4.995067 28.120083 -68.585368 -13.457865 -40.826427 62.069546 -48.575802 6.962910 31.587057 -2.601578 0.419134 -0.757884 2.653218 16.477554 -9.528609 1.838538 -5.987485 23.398495 1.247811 2.915001 -9.190331 2.598275 0.019829 -0.052587 -0.114930
15.408415 89.911999 22.917116 -42.487311 -4.428380 -6.104554 5.286567 6.407233 4.559645 2.416181 2.747124 2.192637 2.416181 2.747124 2.192637 1.801953 2.069079 1.633325 -7.453179 20.137997 1.464394 -14.016674 1.705500 4.901884 9.045408 1.153974 13.134422 41.945923 -4.408706 85.374409 2.519259 8.989845 0.132534 -7.245318 7.526893 -0.957425 -28.325059 14.083585 -11.318277 -24.813114 8.520633 -53.673836 -46.579050 -16.027289 11.999451 -7.174153 11.163330 4.938111 27.468042 -65.507736 -12.546238 -38.927675 60.727062 -46.195677 6.539272 31.267286 -3.195716 0.369745 -1.132532 2.586574 16.086263 -9.269623 1.640407 -5.393302 23.395981 1.379348 2.720395 -9.264174 2.553588 0.048150 -0.025384 -0.038290
15.345149 89.895192 23.021244 -42.370977 -4.961439 -6.068071 5.330817 6.436090 4.691268 2.382828 2.818036 2.207825 2.382828 2.818036 2.207825 1.776601 2.122204 1.644569 -7.441860 20.147060 1.454481 -13.992412 1.719775 4.879596 9.011449 1.121092 13.126610 41.782044 -4.402051 85.300637 2.436077 9.236802 0.283025 -7.229939 7.534994 -0.774267 -28.362835 14.091106 -11.309530 -24.984291 8.450641 -53.717768 -46.467586 -16.511894 12.553245 -7.250141 11.320528 4.825023 25.913028 -62.000519 -10.467678 -36.459784 59.431473 -43.469617 5.916974 30.726510 -3.587239 0.342447 -1.312933 2.391424 16.114191 -8.645521 1.784210 -5.498611 23.371906 1.294990 2.762634 -9.412838 2.535228 0.040620 0.042820 0.010735
15.280447 89.903305 23.147712 -42.389783 -5.388794 -5.973211 5.462507 6.403033 4.759193 2.375948 2.880768 2.221781 2.375948 2.880768 2.221781 1.771133 2.169283 1.654806 -7.440073 20.152418 1.449114 -13.987140 1.728798 4.868742 8.973648 0.977879 13.097620 41.574931 -4.332733 85.340511 2.357109 9.646846 0.372694 -7.256508 7.597326 -0.751132 -28.316424 13.941522 -11.303650 -25.356689 8.677166 -53.746988 -46.383088 -16.729700 13.045405 -7.264468 11.269307 4.812418 25.191421 -58.488152 -9.146052 -34.463448 57.517207 -41.107567 6.212248 30.640170 -3.620962 0.194538 -1.627694 2.108447 16.392142 -8.077838 1.772950 -5.754164 23.298061 1.313621 2.802507 -9.448476 2.469857 0.035050 0.010953 0.051153
15.234055 89.894607 23.244943 -42.229130 -5.491635 -5.902083 5.451835 6.300166 4.795938 2.355685 2.852783 2.242528 2.355685 2.852783 2.242528 1.755952 2.148301 1.670574 -7.454857 20.148435 1.440647 -14.011823 1.721909 4.858138 9.051000 0.832049 13.048823 41.150071 -4.271693 85.338004 2.255693 10.231498 0.402003 -7.273191 7.735598 -0.723023 -28.232253 13.721978 -11.320538 -25.096441 8.781050 -53.587529 -46.380392 -16.501679 12.887582 -7.275469 11.253689 4.821393 24.735913 -55.279122 -8.278993 -33.137546 55.226247 -39.414053 7.095147 30.613573 -3.497831 0.098429 -1.850447 1.858703 16.364987 -7.897020 1.684682 -5.843785 23.330031 1.349126 2.828882 -9.505641 2.423234 0.031872 -0.008880 0.071651
15.167628 89.862171 23.361299 -41.905320 -5.726186 -5.741575 5.273576 6.395830 4.710875 2.341649 2.814180 2.262390 2.341649 2.814180 2.262390 1.745487 2.119372 1.685690 -7.485415 20.137454 1.453896 -14.072227 1.706564 4.892289 9.147298 0.789144 13.006320 40.857587 -4.283510 85.313277 2.144170 10.770593 0.361265 -7.302807 7.864509 -0.687633 -28.217089 13.574868 -11.335156 -24.212787 8.578701 -53.342610 -46.453082 -15.871272 12.270283 -7.301094 11.183839 4.826021 24.844347 -52.074801 -8.021082 -32.417931 53.437978 -38.036342 7.722908 30.314855 -3.477682 0.109101 -2.039675 1.670359 16.168350 -7.573379 1.565201 -5.843096 23.423137 1.364359 2.748189 -9.609954 2.412514 0.035934 -0.011253 0.078937
